<?xml version="1.0" encoding="UTF-8" standalone="no"?>
<svg
   width="32"
   height="32"
   viewBox="0 0 32 32"
   fill="none"
   version="1.1"
   id="svg1"
   sodipodi:docname="icon.svg"
   xml:space="preserve"
   inkscape:version="1.4.2 (ebf0e940, 2025-05-08)"
   xmlns:inkscape="http://www.inkscape.org/namespaces/inkscape"
   xmlns:sodipodi="http://sodipodi.sourceforge.net/DTD/sodipodi-0.dtd"
   xmlns="http://www.w3.org/2000/svg"
   xmlns:svg="http://www.w3.org/2000/svg"><defs
     id="defs1" /><sodipodi:namedview
     id="namedview1"
     pagecolor="#ffffff"
     bordercolor="#999999"
     borderopacity="1"
     inkscape:showpageshadow="2"
     inkscape:pageopacity="0"
     inkscape:pagecheckerboard="0"
     inkscape:deskcolor="#d1d1d1"
     showguides="false"
     inkscape:zoom="21.3125"
     inkscape:cx="16"
     inkscape:cy="14.451613"
     inkscape:window-width="1472"
     inkscape:window-height="891"
     inkscape:window-x="0"
     inkscape:window-y="37"
     inkscape:window-maximized="0"
     inkscape:current-layer="svg1" /><path
     d="M3 6.25C3 4.45507 4.45507 3 6.25 3H10.5C11.0523 3 11.5 3.44772 11.5 4C11.5 4.55228 11.0523 5 10.5 5H6.25C5.55964 5 5 5.55964 5 6.25V10.5C5 11.0523 4.55228 11.5 4 11.5C3.44772 11.5 3 11.0523 3 10.5V6.25ZM20.5 4C20.5 3.44772 20.9477 3 21.5 3H25.75C27.5449 3 29 4.45507 29 6.25V10.5C29 11.0523 28.5523 11.5 28 11.5C27.4477 11.5 27 11.0523 27 10.5V6.25C27 5.55964 26.4404 5 25.75 5H21.5C20.9477 5 20.5 4.55228 20.5 4ZM4 20.5C4.55228 20.5 5 20.9477 5 21.5V25.75C5 26.4404 5.55964 27 6.25 27H10.5C11.0523 27 11.5 27.4477 11.5 28C11.5 28.5523 11.0523 29 10.5 29H6.25C4.45507 29 3 27.5449 3 25.75V21.5C3 20.9477 3.44772 20.5 4 20.5ZM28 20.5C28.5523 20.5 29 20.9477 29 21.5V25.75C29 27.5449 27.5449 29 25.75 29H21.5C20.9477 29 20.5 28.5523 20.5 28C20.5 27.4477 20.9477 27 21.5 27H25.75C26.4404 27 27 26.4404 27 25.75V21.5C27 20.9477 27.4477 20.5 28 20.5Z"
     fill="#212121"
     id="path1"
     style="fill:#a44e4b;fill-opacity:1" /><g
     style="fill:none"
     id="g1"
     transform="matrix(0.80427972,0,0,0.80427972,6.3914406,6.3914406)"><path
       d="m 1.3465889,4.9178493 c 0,-1.9122127 1.5501459,-3.4623586 3.4623586,-3.4623586 H 14.929688 c 1.912181,0 3.462359,1.5501459 3.462359,3.4623586 V 7.8475374 H 16.794035 V 4.9178493 c 0,-1.0296522 -0.834695,-1.8643469 -1.864347,-1.8643469 H 4.8089475 c -1.0296522,0 -1.8643469,0.8346947 -1.8643469,1.8643469 v 7.9900587 c 0,1.029652 0.8346947,1.864347 1.8643469,1.864347 h 2.9296881 v 1.598012 H 4.8089475 c -1.9122127,0 -3.4623586,-1.550178 -3.4623586,-3.462359 z M 19.457388,13.440579 c 0,0.735511 -0.596165,1.331676 -1.331676,1.331676 -0.735512,0 -1.331677,-0.596165 -1.331677,-1.331676 0,-0.735512 0.596165,-1.331677 1.331677,-1.331677 0.735511,0 1.331676,0.596165 1.331676,1.331677 z M 8.8039767,12.375237 c 0,-1.91218 1.5501783,-3.4623585 3.4623583,-3.4623585 h 6.924718 c 1.91218,0 3.462358,1.5501785 3.462358,3.4623585 v 6.924718 c 0,1.91218 -1.550178,3.462358 -3.462358,3.462358 h -6.924718 c -1.91218,0 -3.4623583,-1.550178 -3.4623583,-3.462358 z M 12.266335,10.51089 c -1.029652,0 -1.864347,0.834695 -1.864347,1.864347 v 6.924718 c 0,0.201669 0.03207,0.39588 0.09119,0.577734 l 3.616194,-3.393537 c 0.92152,-0.862075 2.353551,-0.862075 3.275071,0 l 3.590626,3.358914 c 0.0522,-0.17184 0.08033,-0.354226 0.08033,-0.543111 v -3.961468 -2.96325 c 0,-1.029652 -0.834695,-1.864347 -1.864347,-1.864347 z m 0,10.653412 h 6.924718 c 0.250781,0 0.48995,-0.04954 0.708345,-0.139241 l -3.606606,-3.373935 c -0.307244,-0.287322 -0.784517,-0.287322 -1.091761,0 l -3.609376,3.387359 c 0.209233,0.08129 0.43679,0.125817 0.67468,0.125817 z M 5.3416181,4.651514 c 0.4412749,0 0.7990058,0.3577309 0.7990058,0.7990059 v 0.5326705 c 0,0.441275 -0.3577309,0.7990059 -0.7990058,0.7990059 -0.441275,0 -0.7990059,-0.3577309 -0.7990059,-0.7990059 V 5.4505199 c 0,-0.441275 0.3577309,-0.7990059 0.7990059,-0.7990059 z m 0.7990058,3.9950292 c 0,-0.4412749 -0.3577309,-0.7990058 -0.7990058,-0.7990058 -0.441275,0 -0.7990059,0.3577309 -0.7990059,0.7990058 v 0.5326706 c 0,0.4412749 0.3577309,0.7990059 0.7990059,0.7990059 0.4412749,0 0.7990058,-0.357731 0.7990058,-0.7990059 z M 14.397018,4.651514 c 0.441264,0 0.799005,0.3577309 0.799005,0.7990059 v 0.5326705 c 0,0.441275 -0.357741,0.7990059 -0.799005,0.7990059 -0.441265,0 -0.799006,-0.3577309 -0.799006,-0.7990059 V 5.4505199 c 0,-0.441275 0.357741,-0.7990059 0.799006,-0.7990059 z m -8.2563941,7.191053 c 0,-0.441264 -0.3577309,-0.799006 -0.7990058,-0.799006 -0.441275,0 -0.7990059,0.357742 -0.7990059,0.799006 v 0.53267 c 0,0.441265 0.3577309,0.799006 0.7990059,0.799006 0.4412749,0 0.7990058,-0.357741 0.7990058,-0.799006 z"
       fill="#212121"
       id="path1-9"
       sodipodi:nodetypes="ssssccssssssccssssssssssssssssssssccccscsssssccccsssssssssssssssssssssssssssss"
       style="stroke-width:1.06534;fill:#a44e4b;fill-opacity:1" /></g></svg>
